<svg id="圖層_1" data-name="圖層 1" xmlns="http://www.w3.org/2000/svg" viewBox="0 0 300 300"><defs><style>.cls-1{fill:#010101;}.cls-2{fill:#474747;}.cls-3{fill:#3d3d3d;}.cls-4{fill:#707070;}.cls-5{fill:#fdfdfd;}.cls-6{fill:#fff;}.cls-7{fill:#f3f3f3;}</style></defs><title>LOGO</title><path class="cls-1" d="M165.14,81.71c-9.33,9.68-16.09,20.66-18.17,34.24a58.49,58.49,0,0,0,42.18,65.6c1.07.3,2.36.15,3.25,1.77-13.62,0-27,0-40.38,0-2.47,0-3.2-1-2.57-3.41,2.35-9.15-3.47-16.25-6.29-24.09-.6-1.67-2.52-1.35-4-1.36-12,0-24,0-36-.05-2.47,0-4,.76-5,3.09-2,4.58-4.22,9-6.23,13.62-.59,1.34-1.39,3.09-1,4.26,2.07,5.85-1.52,6-5.56,6-6.14,0-12.28,0-19.1,0,2.43-3.73,5-6.91,6.79-10.51,13.27-27.41,26.36-54.91,39.53-82.38a8.36,8.36,0,0,0,.28-7.68c1.17-1,2.56-.57,3.85-.57q21.75,0,43.49,0C162,80.24,164,79.57,165.14,81.71Z"/><path class="cls-1" d="M168.25,125.11c.05-24.22,23.73-42,46.46-34.94,3.44,1.06,4.74,2.21,3.6,6.24-5.73,20.32-11.13,40.73-16.49,61.15-.78,3-1.63,4-5,3.23A36.66,36.66,0,0,1,168.25,125.11Z"/><path class="cls-1" d="M154.26,116.75c3.08-21.26,20.84-39,41.91-42,5.64.09,11.29,0,16.93,0C228.9,77.45,240.56,86,248.86,99.51c1.05,1.71,2.35,3.47-.72,4.72-2.3.93-4,2.38-6.06-1-10.39-16.63-25.58-23.93-45-21-19.88,3-35,20.39-36,40.39a43.58,43.58,0,0,0,32,44.62c19.4,5.45,40.2-3.59,50-21.84,1.39-2.6,2.15-5.27,6.11-3.16,2.28,1.21,3,2.26,1.76,4.57-8.44,16.31-21.27,26.54-39.84,28.86-4.65,0-9.3-.12-14-.1-21.13-2.1-39.71-20.26-42.91-41.93C154.4,128,154.44,122.39,154.26,116.75Z"/><path class="cls-1" d="M221.79,192.2c5.87,0,12-.12,18.09,0,4.62.12,6,1.89,5.15,6.35-.45,2.44-1.33,4.82-1.7,7.27-.28,1.84-1.08,2.43-2.87,2.62-5.71.61-6.13.19-4.61-5.49.26-1,.54-1.92.72-2.9.3-1.66,1.72-3.8-1-4.6-2.86-.85-3.73,1.31-4.29,3.56-.53,2.09-1.2,4.16-1.56,6.28s-1.23,3.07-3.55,3.18c-5.5.27-5.71.13-4.18-5.18.46-1.59.87-3.21,1.2-4.83.28-1.39.23-2.74-1.62-3-1.43-.2-2.8.12-3.27,1.61a45.75,45.75,0,0,0-2.16,8.17c-.63,5.12-4.43,3.11-6.89,3-4-.15-.79-2.85-1.08-4.37a1.19,1.19,0,0,1,.11-.48c1-3.5,1.13-7.71,3.24-10.3C213.81,190.36,218.19,193.16,221.79,192.2Z"/><path class="cls-1" d="M52.8,208c4.61-7,9-13.8,13.58-20.48,1.85-2.7,4.88-1.15,7.37-1.28,2-.1,3.38,1.14,3.84,3.22C78.8,195,80,200.52,81.31,206c.32,1.36.31,2.61-1.35,2.29-3-.56-7.87,2.65-8-3.93,0-1.65-1.6-2.06-3-1.94-3.44.3-7.54-1.59-9.86,2.7C57.83,207.53,56.32,209.33,52.8,208Z"/><path class="cls-1" d="M203.47,192.54c2.45.56,3,2.34,2.87,4.52a14,14,0,0,1-.28,2c-1.76,8.8-1.76,8.77-10.86,8.76-2.31,0-4.62.43-6.92.39-2.69,0-5.15-.91-5-4.19.12-3.11,1-6.11,4.88-6.35,3-.19,6.08,0,9.1-.68-2.71-1.86-5.61-1-8.39-1.21-2.35-.15-3.68-.67-2-3.2A85,85,0,0,1,203.47,192.54Z"/><path class="cls-1" d="M180.27,204.7c-.05,3.07-1.71,4-4.24,3.73-4.92-.61-10.43,1.9-14.57-2.56-.6-.65-.53-2.31-.23-3.35C166,185.61,162.39,186,181,186.17c1.44,0,3.8-.76,3.69,2s-2.37,1.52-3.84,1.7c-2.56.31-5.86-1.22-7.49,1.34-2.13,3.35-2.71,7.46-3.27,11.4-.25,1.79,1.33,2.09,2.72,2.12C175.31,204.74,177.77,204.7,180.27,204.7Z"/><path class="cls-1" d="M90.77,192.09c3.72-.62,5.13.56,3.68,4.29a36.63,36.63,0,0,0-1.38,5.29c-.28,1.24-1,2.74.92,3.3a2.85,2.85,0,0,0,3.69-1.74c.87-2.3,1.36-4.75,2-7.13.82-2.88,5.16-4.7,7.58-3.23a1.21,1.21,0,0,1,.59,1.59c-1,4.13-1.73,8.3-2.81,12.4-.44,1.67-2.12,2.16-3.67,1.81-4.09-.92-8.23-.3-12.33-.58-3.45-.23-5.22-1.95-4.37-5.59.6-2.58,1.45-5.12,1.87-7.73S88.58,191.62,90.77,192.09Z"/><path class="cls-1" d="M118.84,208.73c-7.13,0-8.56-1.81-7.08-8.68.37-1.73,1.9-3.82-1-5-.9-.38-.71-1.41-.21-2.16,2.94-4.43,7.88-5,12.48-1.36.13.1.29.16.43.25,1.42.92,4.55-.89,4.45,1.65-.12,3.13-3.55,1.17-5.28,2.1-3.17,1.72-2.63,5.08-3.29,7.84-.5,2.1,1.16,2.3,2.8,2.39,1,.06,2.76-.52,2.72,1.19s-1.63,1.81-3,1.82Z"/><path class="cls-1" d="M130.16,207.67c-4.16-3.36-2.38-12.28,3-14.95,2,1.19,4.58-.31,6.41,1.5.91,4.3-1.1,8.11-2,12.1C135.31,208,132.48,206.49,130.16,207.67Z"/><path class="cls-1" d="M149.08,192.9c3.54,3.79,1.93,11.79-3,14.75-2.09-1.23-4.79.59-6.74-1.37-.91-4.29,1.19-8,2.15-12C143.78,192.4,146.64,193.78,149.08,192.9Z"/><path class="cls-2" d="M165.14,81.71a13.9,13.9,0,0,0-5.85-1l-46.39.08c-.83-2.31,1.13-1.39,1.83-1.4q24.4-.09,48.8,0C164.79,79.41,167.9,78.66,165.14,81.71Z"/><path class="cls-3" d="M213.11,74.83a34.35,34.35,0,0,1-16.93,0A42.64,42.64,0,0,1,213.11,74.83Z"/><path class="cls-1" d="M154.26,116.75a35.25,35.25,0,0,1,0,16.92A46.77,46.77,0,0,1,154.26,116.75Z"/><path class="cls-1" d="M197.43,175.54a25,25,0,0,1,14,.09A31.53,31.53,0,0,1,197.43,175.54Z"/><path class="cls-1" d="M149.08,192.9l-7.16,1.94a1.73,1.73,0,0,1-2.58,0c-2.06-.7-4.85-.49-6.19-2.09A53.05,53.05,0,0,1,149.08,192.9Z"/><path class="cls-1" d="M140.1,205.52c2,.71,4.93.7,6,2.12a60.15,60.15,0,0,1-16,0c1.56-1.71,4.79-1.38,7.19-2.07A1.89,1.89,0,0,1,140.1,205.52Z"/><path class="cls-4" d="M203.47,192.54H186.86A49.37,49.37,0,0,1,203.47,192.54Z"/><path class="cls-5" d="M122.86,105.25c4.44,11,8.26,20.47,12.15,29.95,1.08,2.62-.1,3.23-2.43,3.22-7.13,0-14.27,0-21.4,0-2.13,0-3.79-.36-2.48-3.13C113.23,125.71,117.73,116.13,122.86,105.25Z"/><path class="cls-6" d="M64.14,198.42a24.94,24.94,0,0,1,4.74-7.1c1.21,2.44,2.42,4.87,1.26,6.76C69.11,199.76,66.57,198.89,64.14,198.42Z"/><path class="cls-7" d="M193.6,205.18c-1.24-.11-2.4-.43-2.21-2,.24-2.08,1.69-2.66,3.56-2.51,1,.08,2.11.14,1.94,1.59C196.67,204.17,195.63,205.25,193.6,205.18Z"/><path class="cls-6" d="M140.1,205.52l-2.75.08c-3.48-4.36-.52-7.53,2-10.78l2.58,0C144.49,198.94,142,202.19,140.1,205.52Z"/></svg>