<svg id="圖層_1" data-name="圖層 1" xmlns="http://www.w3.org/2000/svg" viewBox="0 0 300 300"><defs><style>.cls-1{fill:#010101;}.cls-2{fill:#fbfbfb;}.cls-3{fill:#1a1a1a;}.cls-4{fill:#f7f7f7;}.cls-5{fill:#f4f4f4;}.cls-6{fill:#f2f2f2;}.cls-7{fill:#fafafa;}.cls-8{fill:#eee;}.cls-9{fill:#ededed;}.cls-10{fill:#f9f9f9;}.cls-11{fill:#f3f3f3;}.cls-12{fill:#ececec;}.cls-13{fill:#eaeaea;}.cls-14{fill:#f1f1f1;}.cls-15{fill:#ebebeb;}.cls-16{fill:#e5e5e5;}.cls-17{fill:#e9e9e9;}.cls-18{fill:#f8f8f8;}.cls-19{fill:#f5f5f5;}.cls-20{fill:#f6f6f6;}.cls-21{fill:#fff;}.cls-22{fill:#f0f0f0;}.cls-23{fill:#fcfcfc;}</style></defs><title>LOGO</title><path class="cls-1" d="M286,73.28c-1.49.52-1.23,1.92-1.49,3C273,127.57,261.69,178.9,249.34,230a8,8,0,0,1-4,5.58c-28.12,16.13-57.49,20.51-88.49,9.5a142.37,142.37,0,0,1-22.55-9.83c-.27-1,.41-1.42,1.2-1.71,1.83-.54,3.38.66,5.1.79a71.86,71.86,0,0,0,13.69,5.36,32.58,32.58,0,0,0,5.47,1.14,55,55,0,0,0,14.3,3.51c7.59.58,15.19.24,22.77,0a96.93,96.93,0,0,0,19.93-3.77c6.08-1.71,12-3.87,17.26-7.49,3.32-.24,5.45-3,8.38-4a11,11,0,0,0,3.72-7.74c-.5-2.84,1.44-5.4.92-8.24.1-.38.23-.74.36-1.11a22.26,22.26,0,0,0,3.3-13.88,27.89,27.89,0,0,1,1.52-3.14c1-3,2.36-5.9,1.69-9.19a16.9,16.9,0,0,1,1-3.31c1.5-3.83,3.07-7.65,2.42-11.93a8.12,8.12,0,0,1,.9-2.21,15.23,15.23,0,0,0,2-10.81c.28-1.33,1.31-2.39,1.4-3.79a6.83,6.83,0,0,1,1.15-4.32,5.07,5.07,0,0,0,.56-4.35c.21-2.11,1.84-3.77,1.89-5.93.08-2.45,1.93-4.57,1.32-7.15-.26-2.42,1.52-4.28,1.77-6.56.15-3.15,2.52-6,1.31-9.33.32-1.14,1.06-2.08,1.48-3.17.61-2.94,2-5.69,2.33-8.71.95-4.75,2.18-9.45,2.83-14.26,1.39-4.86,2.9-9.69,3.11-14.8A2.44,2.44,0,0,1,281,73.41c1.88-.34,2.85-2.68,5.06-2.31Z"/><path class="cls-1" d="M256.3,183.06c-.2.92.67,2.07-.6,2.76-2.45,4.08-2.53,4.12-5.49,2.55-.38-.21.16-.42-.22-.12-.08.06.29.28.44.46,1.4,2,4.08,3.46,3,6.6a2.62,2.62,0,0,1-.89,2.91c-.69,2.41-.86,5.36-4.68,4.52a6.38,6.38,0,0,0-.56-.39,2.77,2.77,0,0,1,.47.32c2.87,3.1,3.16,6.5,1.26,10.17a.76.76,0,0,1-.09.61c-1.27,1.53-1.59,4.48-4.75,3.13-.36-.37-.89-.56-1.17-1a7.13,7.13,0,0,0,1,.84c1.51,1.11,1.29,3.17,2.46,4.47.26,3.39.11,6.64-3.3,8.62-.44.19.13.25-.28.18-3.77-.7-5.2,2.65-7.61,4.3-3.66,1.48-4.07,1.25-4.06-2.52a2.18,2.18,0,0,0-1.08-2l-.76-.75c.33.31.65.65,1,.93,1.64,4.21-1.23,8.8-5.46,8.76-1.38,0-1.88-.88-2-2-.12-1,.62-2.18-.63-2.94-2.41-2.41-2.41-2.41-4,1a14.7,14.7,0,0,1-2.46,1.2,2.45,2.45,0,0,1-1.11,0,3.18,3.18,0,0,1-1-.38c-.72-.26-.89-2.46-2.22-.6-.49.74-.7,1.66-1.51,2.16-1.4.51-2.8,1.35-4.21,0-.62-.34-.65-1.57-1.43-1.38-1,.24-.57,1.44-.94,2.16a3.52,3.52,0,0,1-2.19,1.56,2.22,2.22,0,0,1-2.54-.47c-.73-.73-1.42-1.49-1.3-2.37-.07.92.66,1.7,1.41,2.49,1.54,2.84.45,4.82-2.07,6.33-4.33.51-4.34.51-4.42-3.91a2.68,2.68,0,0,0-1.24-2.36,3.4,3.4,0,0,1-.52-.88c-.8-1.85-1.36-.68-1.95.16a10.08,10.08,0,0,1-2.59,1.78,2.08,2.08,0,0,0-.85,1.09c-1.79,4.49-1.78,4.49-6.43,4.27-1.55-.75-1.16-2-1-3.33.15-1.09.74-2.26-.23-3.28-.44-.66-.8-1.37-1.29-2-1.53-.76-1.3,1.24-2.22,1.42l-.5.22a4.94,4.94,0,0,1-1.11.11,3.73,3.73,0,0,1-2.7-1.75c-.84-2.12-1.58-.74-2.33.09a3,3,0,0,1-1,.35,2.37,2.37,0,0,0-2.33,2.22c-.38,3.16-2.36,3.31-4.8,2.76-1.84-.56-2.33-1.75-1.89-3.59.38-1.62.54-3.3-.63-4.76l-.3-.32a3.91,3.91,0,0,1,.74,1.06c.55,2.67,1.09,5.33-2.62,6.17-2.64-.63-4.67-2.72-7.66-2.77-2.31,0-2.79-2.11-2.34-4.14.24-1.06.72-2.06-.26-3a5.06,5.06,0,0,1-.9-1.72c-.47-2.31-1.41-1-2.28-.29a3.18,3.18,0,0,0-2.76,2.43c-.35,1.41-1.08,2.77-3,2.41-4.19-1.82-4.63-3.75-1.72-7.43a4,4,0,0,0,.57-.35,6,6,0,0,1,1.49-.75,6,6,0,0,0-1.43.72,3.93,3.93,0,0,0-2.2,2.64c-.53,2.52-2.08,2.92-4.24,2-1.66-.94-2.29-3.81-5.11-2.68-.43.17-1.24-.32-1.52-.83-1-1.83-2.52-2.35-4.55-2.64-2.38-.34-3.31-2.44-2.56-4.59.6-1.72-.07-2.64-1-3.69-.23-.54-.37-1.11-.63-1.63a.78.78,0,0,0-.87-.44,5.59,5.59,0,0,1-1.69.55,2.76,2.76,0,0,1-2.37-1.09,8.17,8.17,0,0,1-.78-1.86c-.5-1-1.14-.53-1.78-.17a3.25,3.25,0,0,1-1,.24,2.91,2.91,0,0,1-2.3-1.23c-.35-.54-.46-1.18-.75-1.73a1,1,0,0,0-.84-.57,18.88,18.88,0,0,0-1.86.81,3,3,0,0,0-1.53,1.88c-.55,1.39-1.42,2.28-3,1.67s-3.08-1.51-2.68-3.59c.23-1.21.72-2.37-.34-3.41a6.65,6.65,0,0,1-1-1.67c-.24-.55-.55-1-1.27-.72a6.18,6.18,0,0,1-1.35.53,2.92,2.92,0,0,1-2.46-.76,2.67,2.67,0,0,1-.66-.76c-.27-.66-.65-1.11-1.47-.7-.3.1-.59.17-.89.25-.94.2-1.27.89-1.63,1.71-1,2.39-3.09,2.36-4.75,1.23-2.38-1.62-5.21-1.4-7.71-2.46-1.09-.46-2.19-.63-2.87-1.7l.68-4.35c.47-.53,1.16-.81,1.65-1.32-.48.52-1.18.78-1.61,1.36l-2.23-.1a5.7,5.7,0,0,1-1.21-.4,1.08,1.08,0,0,0-1.24,0,1.29,1.29,0,0,1-1.24-.16,2.24,2.24,0,0,0-2.32,1.28c-.44.9-.57,2.31-2,2.12-1.65-.22-1-1.59-1-2.56,0-1.37-.94-1.45-2-1.44a1.78,1.78,0,0,0-2.15.38,2.13,2.13,0,0,1-1.43.22l-2.15-.79c-1.09-.29-1.74.5-2.5,1-.61.19-1.32-.11-1.86.39l0,.18a2,2,0,0,0-1.41,1.31,19.5,19.5,0,0,1-1.23,3,2,2,0,0,1-1.54.66c-.82,0-.84-.76-.71-1.36.55-2.54-1.11-1.73-2.35-1.58l-.22-.18.17.23a23.76,23.76,0,0,1-.29,2.46c-.26,1.2-.79,2.55-2.12,2.53-2,0-.41-1.6-.75-2.4-.26-.62-.72-.47-1.19-.32-1.3.11-.85,1.46-1.45,2.07a26.9,26.9,0,0,1-1.12,2.62,1.7,1.7,0,0,1-1.74,1c-.79-.13-.42-1.12-.7-1.37-1.21-1-.54-4.45-3.71-3l0,0c-.24-1.21.49-2.24-.79-3.71-1.63-1.87.63-3.71,2.24-5.09,1.26-.17.94-1.36,1.35-2.08,0-.12.12-.3.08-.34-3.23-3.34-.28-5.23,1.7-7.36.58-.63,1.34-1.72.82-2.23-2.74-2.7-.52-4.3,1.12-6.08,1.24-.21.93-1.43,1.4-2.14-1.87-2.94-1.27-5.37,1.52-7.35,1.67-.34.67-2,1.41-2.81-3.46-2.43-.46-4,.75-5.87,1.26-.18.89-1.47,1.45-2.12-1.65-2.69-1.13-4.9,1.46-6.65,1.77-.29.78-1.91,1.35-2.78-2.6-2.55-1.07-4.59.82-6.59,1.27-.17.9-1.47,1.45-2.13-1.87-3.22-.73-5.53,2.21-7.28l.12.15-.17-.09c-.12-1.14.67-2.08-.43-3.49-1.31-1.67.4-3.45,1.92-4.69,1.8-.23.72-1.92,1.38-2.73-2.47-2.32-.76-4.07.79-5.85,1.46-.66,1.26-1.75.77-2.92-.88-.92-.68-1.94-.31-3,.28-.79.56-1.72,1.39-2,1.55-.47.55,1.3,1.21,1.55.36.14.87-.12,1.3-.19.85-.53.05-1.53.62-2.14.4-1.34.71-2.74,2.14-3.5,1.45.41.43,2.27,1.64,2.78a1.07,1.07,0,0,1,.73-.42,1.93,1.93,0,0,0,1.13-.65c.73-1.13,1.63-1.95,3.12-1.67l.8-.21c.16.16.39.24.48.47l-.52-.41c.19-.69.36-1.38.57-2.06.38-1.21.33-3,1.88-3.12,2.12-.11.45,1.86,1,2.69.44.62,1.07.28,1.63.25l.17.18q.08.1-.22-.12a11.51,11.51,0,0,1,.56-2.77c.43-.92.79-2.31,2-2.27,1.83.07.76,1.61.94,2.5s.87,1,1.59,1.08l.42,0c.61-.19.9-.8,1.45-1.08,1.17-.56,2.27,0,3.39.21A2,2,0,0,0,78.06,95c.93-.43,1.92-.17,2.87-.28s2,.53,2.91-.34l.44-.07,2.87,0,.16.27-.22-.22a16.69,16.69,0,0,1,.16-2.16c.23-1.17.36-2.67,1.92-2.65,2,0,1.32,1.61,1.14,2.71-.26,1.55.69,1.86,1.87,2a3,3,0,0,1,.86.35c.84.85,1.84,0,2.73.26L98,94.2a2.26,2.26,0,0,1,.84.46c.57,1,1.5.82,2.41.74,1,.1,2-.15,2.9.33.65.32,1.09,1.15,2,.85,1.76-.54,3.48-.81,4.94.69a1.64,1.64,0,0,0,1.25.39A5.16,5.16,0,0,1,114,97.2c1.81.19,3-.44,3.48-2.33.27-1.13.8-2.09,2.22-1.82,1.58.29,1.29,1.43,1.11,2.54s-.6,2.35.82,2.78c1.66.51,2-1,2.37-2.07s.83-2.08,2.26-1.76c1.72.39,1.49,1.65,1.15,2.86-.65,2.29.68,3.05,2.54,3.46l.45.19c.69.38.52,1.83,1.82,1.44a2.52,2.52,0,0,1,2.23-.28c1.73.29,2.72-.49,3.17-2.14.39-1.44,1.2-2.41,2.87-1.92s1.28,1.85.89,2.95c-.84,2.35.66,3,2.39,3.5a3.86,3.86,0,0,1,.72.57c.46.72.83,1.6,2,1.14a4.6,4.6,0,0,1,1.72-.51l1.4.2c.85.5,2.08.37,2.57,1.49,1.21,1.91,2,.11,3-.34a.94.94,0,0,1,.89.26c.88.77,2,.53,3,.68l.46.16c.92,1.57,2,.75,3.08.22a1.26,1.26,0,0,1,.89.35c1.7.16,3-.19,3.65-2.08.41-1.29.61-3.12,2.73-2.48s1.06,2.28.94,3.6c-.06.59-.07,1.19-.1,1.79,1,.5,2.41.09,3.24,1.17.78.86,1.57.53,2.36,0a3.11,3.11,0,0,1,2.44.18l1.41.05.43.11c1.1,1,1.7.12,2.34-.62a1.86,1.86,0,0,1,.86-.3,6.41,6.41,0,0,0,3.63.81l.43.13c.75.78,1.37.5,1.93-.25a.88.88,0,0,1,.87,0,10.07,10.07,0,0,1,4-.55l.4.25c.72,1.11,1.36.59,2-.1l.45-.15,3.68-.11c1.5.91,2.13-.34,2.92-1.19a2.06,2.06,0,0,1,1.45-.24l2.89-.64.44.17c1.08,1,1.26,0,1.53-.74a1.91,1.91,0,0,1,1.69-1l2.88.09a3.41,3.41,0,0,1,1,1.46,2.8,2.8,0,0,0-1-1.41c.48-1.75.88-3.52,1.47-5.23a2,2,0,0,1,2.61-1.4c1.1.38.49,1.49.29,2.21-.59,2.15-.12,3.07,2.21,2.18a10.4,10.4,0,0,1,1.18,1.36,6.12,6.12,0,0,0-1.23-1.3c-.11-1.9.95-3.45,1.54-5.13a2.19,2.19,0,0,1,2.48-1.66c1.48.31.54,1.54.55,2.4s-.79,2.4,1.27,2.1c2.61.78.54-1.69,1.46-2.09a7,7,0,0,1,.75-3.42c.76-1.15,1.74-2.37,3.07-1.88s.22,1.86.22,2.84c0,.75-.91,2.1,1,1.7,1.5-.48,3.69.61,4.3-1.9.65-.54,1.67-.28,2.23-1l1.45-.83a1.19,1.19,0,0,1,1,.1c.15-.33-.22-.38-.31-.58a1.21,1.21,0,0,1,.09-1.52c0-2.87,1-5.14,4-6.11.88,1.33.19,2.49.11,3.63-.13,1.83.8,1.34,1.76.84,0-.75,1.84,1.27,1.14-.78a2.7,2.7,0,0,1,.29-2.67,22.19,22.19,0,0,1,1-3c.54-1.09,1.52-2.16,2.74-1.77s.45,1.64.3,2.51c-.28,1.68.08,2.39,1.8,1.36.29-.38,2.51,1.37,1.08-1a1.6,1.6,0,0,1,.25-1.67c.82-2.46.65-5.64,4.37-6.1.11,4.81.11,4.81,2.3,3.66a3.39,3.39,0,0,1,1.51.44,10.21,10.21,0,0,1-.9-.91c.6-3.46.69-7.2,4.94-8.76.94,1.66-.51,3.25,0,4.84,1.14.31,1.63-.65,2.33-1.2,2.17-.48,2.59,2,4.21,2.46a3.1,3.1,0,0,1,.57.82c1.8,2.9,2.95,5.89,1.17,9.24-.92,1.63-.74,4.07-3.33,4.45a2.47,2.47,0,0,1-1-.15,4.22,4.22,0,0,1-.6-.3c0,.23.24.23.34.38,3.23,3.17,2.81,6.74,1.21,10.46-1,1.85-1.4,4.39-4.5,3.35-.7-.47-1.4-.95-1.35-2-.14.94.57,1.34,1.16,1.8,1.78,1.53,3.79,2.94,2.88,5.81a3.26,3.26,0,0,1-.89,2.92c-.59,2.27-.92,4.73-4,5.09a7.45,7.45,0,0,1-1.48-.73,10.91,10.91,0,0,1,1.41,1c.61,1.39,2.49,2.18,2,4.11.3,2.35-.68,4.38-1.55,6.45-1.09,1-1.22,3.24-3.47,2.87a6.24,6.24,0,0,1-1.38-.75,7.3,7.3,0,0,1,1.39,1.07c.78,1.26,1.12,2.74,1.94,4a11.64,11.64,0,0,1-1.2,5.87c-1.25,1.25-1.25,4.23-4.24,3.07-.35-.31-.83-.47-1.12-.86a6.77,6.77,0,0,0,1,.79c1.35,1.72,2.42,3.53,2,5.85,0,1.23.29,2.53-.8,3.52-1.61,4.69-2.24,5-5.29,3-.15-.13-.27-.38-.46-.44s-.16.26.07.46.7.58,1,.89c2.12,2.15,3.67,4.5,2.59,7.73.06.61,0,1.17-.7,1.39-1.11,2.24-.66,5.91-4.86,5.31a4.21,4.21,0,0,1-1.35-1.19c.34.68.93.82,1.33,1.2s.8.62.81,1.09c0,1.23-.63,2.48,1.28,3.22C257.36,180.54,256.67,182.09,256.3,183.06Z"/><path class="cls-1" d="M111.64,223.66c-8.8-4-17.34-8.46-26.48-11.68-21.71-7.65-42-5.65-60.76,8.33a22.46,22.46,0,0,1-2.07,1.16l3.27-11.2c.43-1.46,1.77-1.91,2.89-2.56A51.46,51.46,0,0,1,61.6,201.1c9.92.63,19,4.23,27.75,8.51,7.11,3.48,14.58,6.37,21.19,10.86,1,.66,2.26,1,2.32,2.51C112.67,223.58,112.38,224,111.64,223.66Z"/><path class="cls-2" d="M112.51,222.9c-16.27-8.9-32.6-17.64-50.9-21.8a5.45,5.45,0,0,0,3-.79c1.6.56,2.79.42,3.19-1.58.18-.92.58-2,1.86-1.72,1.09.26.87,1.25.79,2.1-.1,1.13-.74,2.59,1,2.92,1.55.29,1.51-1.2,1.91-2.12s.68-1.67,1.77-1.33.84,1.29.73,2.12c-.17,1.15-.78,2.55.94,3,1.48.36,1.78-1,2-2,.35-1.41,1.2-1.65,2.42-1.36,1.26.45,1.82,2.56,3.69,1.56l2.09.66c.92,1.81,2.85,1.45,4.34,2A3,3,0,0,1,92.62,208c-.31,1.34-.51,2.8,1.28,3.14,1.61.31,1.5-1.27,1.72-2.18.35-1.41,1.13-1.67,2.36-1.35,1.54.55,2.34,2.6,4.38,2.14l2.18.74c1.09.91,1.93,2.24,3.62,2.1l2.17.83c1,1.15,1.76,2.56,3.64,2.16,2.18.9,2.14,2.56,1.63,4.49-.33,1.23-.19,2.57,1.3,2.93s1.52-1.15,1.89-2.07.32-2.13,1.75-1.7c1.08.33,1.34,1.28,1.17,2.35-.12.71-.28,1.42-.36,2.13a2.14,2.14,0,0,0,1.43,2.59c1.62.48,1.65-.9,2-1.9s.12-2.51,1.71-2.2,1.38,1.77,1.2,3c-.23,1.53-.89,3.1.79,4.26.2.66-.18,1-.7,1.28A48.11,48.11,0,0,1,112.51,222.9Z"/><path class="cls-1" d="M275.12,80.35l.06-.27c-1.08-1.22-1.55-2.9-2.91-3.9,1.27-3.14.56-7.51,5.24-8.57.73.84.18,1.65.08,2.44-.15,1.25-.23,2.35,1.61,1.5,2.36-1.1,1.42,1,1.8,1.86l.06,2c-.88,1.11-.93,2.65-1.91,3.7S277.05,81.83,275.12,80.35Z"/><path class="cls-3" d="M112.51,222.9c5.25,2,9.8,5.5,15.19,7.25,2.89,0,5.08,1.8,7.48,3,.44.29.84.61.69,1.23l-1.58.82a209.1,209.1,0,0,1-22.65-11.56Z"/><path class="cls-1" d="M21.75,201.76c0,1.14-1.21,2.19.48,3.45,1.37,1-.31,4.9-2,5.2-.76.14-2.74-3.68-2.44-4.71.6-2.05,2.35-2.93,4-3.92Z"/><path class="cls-1" d="M151,108l-1.41-2a2.69,2.69,0,0,0,2.68-2c.55-1.63,1.42-2.92,3.38-2.26,2.43.82.83,2.53.68,3.89-.07.59-.22,1.17-.34,1.76l-.62,0C154,108.37,152.73,109.84,151,108Z"/><path class="cls-1" d="M178.65,111l-2.05.77c-1.27-.25-2.51,1.06-3.79.05-.35-1.11-1.34-1.57-2.2-2.16,2.22.23,3.21-1,3.76-3,.35-1.25,1.1-2.18,2.59-1.83,1.76.42,1.25,1.76,1,2.88A2.93,2.93,0,0,0,178.65,111Z"/><path class="cls-1" d="M109.66,98.77c-.87-3.33-1.88-1.47-2.87-.08a1.89,1.89,0,0,1-.42-2.77.83.83,0,0,1,1.12-.15c1.48.07,2.89,0,3.43-1.77.38-1.25.76-2.81,2.53-2.27s.86,2.13.75,3.33c-.07.71-.14,1.42-.2,2.12l-.7,1.5C112.06,98.15,110.89,99.69,109.66,98.77Z"/><path class="cls-1" d="M143.82,105.39l-.07-.79c.39-.87.83-1.72,1.15-2.61.47-1.3.89-2.51,2.73-2s1.55,1.76,1.21,3.08c-.24.93-.45,1.86-.67,2.79l-.74,1.61A5.62,5.62,0,0,1,143.82,105.39Z"/><path class="cls-1" d="M134.44,102.2l-1.49,1.58c-1.91,0-2.11-1.84-3-2.92h0a2.51,2.51,0,0,1,.17-.7c.85-1.47,0-4.61,3.06-3.91,2.85.66.68,3,.9,4.58A11.62,11.62,0,0,0,134.44,102.2Z"/><path class="cls-1" d="M240.3,96.44,238.73,98c-1.13.62-2.11,2-3.61.72.52-1.81,1-3.66,1.6-5.42a2.37,2.37,0,0,1,2.74-1.76c1.26.39.19,1.61.21,2.46S239,95.92,240.3,96.44Z"/><path class="cls-1" d="M205.49,108.79l-.77.79c-1.21.8-2.42,1.12-3.62,0,.43-1.36.85-2.72,1.28-4.07s1.35-2.45,2.86-2,.57,1.79.49,2.78C205.66,107.15,205.57,108,205.49,108.79Z"/><path class="cls-1" d="M163.4,108.83l-.79,0c-1.5,1.23-2.58.35-3.62-.73l0,0c1-1.79.34-5.47,3.57-4.74S162.87,107,163.4,108.83Z"/><path class="cls-4" d="M272.27,76.18l4.06-1.52-1.15,5.42c-1.07.57-1.73,2.49-3.1,1.69-1.1-.65.11-2.15,0-3.26a8.11,8.11,0,0,0-.53-1.6Z"/><path class="cls-5" d="M249.77,88.52c.14.68.08,1.79.44,2,1,.46,2.86-.25,2.19,2.05-.58,2-.58,4.37-3.56,4.62-.65-1.72.86-3.61-.5-5.18Z"/><path class="cls-6" d="M264.22,82c1.13,0,2.11-1.68,3.22-.61.84.81.17,2-.06,3.06a3.92,3.92,0,0,1-2.65,3.1c-1.11.36-1.12-.53-1.09-1.25.05-1.28.77-2.55,0-3.82Z"/><path class="cls-7" d="M256.95,84.93c.08.34.05.82.27,1,.83.72,3.13-.51,2.6,2.06-.44,2.15-.94,4.17-3.55,4.81-.66-1.78.72-3.69-.65-5.23Z"/><path class="cls-8" d="M228.7,100.14c2.37,1.34,3.5,3.07,1.94,5.77-.53.91-1.26,1.66-2.24,1.49-1.59-.27-.57-1.49-.55-2.31,0-1,.75-2.15-.61-2.86Z"/><path class="cls-1" d="M187.33,111.06c.34-1.39.61-2.79,1.05-4.15a2,2,0,0,1,2.78-1.5c1.28.47.77,1.61.54,2.48a29,29,0,0,1-1.15,3l-.37.17a2,2,0,0,1-2.89,0Z"/><path class="cls-9" d="M242.48,93.61c2.71,1.92,3.33,4.59,1.48,6.56-.49.53-1.12,1.06-1.86.81-1-.32-.49-1.18-.45-1.84.07-1.18.55-2.34.11-3.53Z"/><path class="cls-1" d="M107.48,95.77h-.72c-.82.82-1.68,1.48-2.92.82a4.29,4.29,0,0,0-2.79-.8l-.32-.3.13-.41c1.64-.09,3.4.15,4-2.1.3-1.2.53-2.93,2.42-2.3s.75,2.18.62,3.36A13.5,13.5,0,0,1,107.48,95.77Z"/><path class="cls-1" d="M183.7,110.25l-.07.85c-1.23.73-2.44,1-3.62-.1l0,0c.41-1.22.85-2.44,1.23-3.67s.91-2.33,2.41-2c2,.44.66,1.9.66,2.88A6.64,6.64,0,0,1,183.7,110.25Z"/><path class="cls-1" d="M212,106.56l-.79,1.58a2,2,0,0,1-2.91,0l0,0a11.05,11.05,0,0,1,1.17-4.53c.44-1.12,1.39-2,2.5-1.63,1.48.47.21,1.56.14,2.39S212.1,105.84,212,106.56Z"/><path class="cls-1" d="M194.6,110.34c.26-1.3.47-2.6.79-3.89s1.3-2.23,2.66-1.81c1.79.55.81,2,.52,3a20.09,20.09,0,0,1-1.12,2.66l.05,0c-1,.74-2,1.07-2.95,0Z"/><path class="cls-10" d="M235.11,98.73l3.62-.73c-.38,1.51-.71,3-1.17,4.52-.3,1-1,1.81-2.09,1.57s-.79-1.3-.66-2.09c.19-1.11.43-2.19-1-2.63Z"/><path class="cls-1" d="M75.55,96.61a2.7,2.7,0,0,0-3.06-.07,1.48,1.48,0,0,1-2.11-.05l0,0c.38-1.24.73-2.49,1.14-3.71.32-.94.86-1.87,2-1.67s.68,1.32.66,2.07c-.05,1.47.86,1.78,2,1.86l.28.38C76.59,96.17,76.43,96.7,75.55,96.61Z"/><path class="cls-1" d="M98.06,95.19l-.1-1a1.08,1.08,0,0,1,.15-.32c1.18-1.18.16-4.89,3.05-3.7,2.4,1,.24,3.24-.3,4.9l.06,0A2,2,0,0,1,98.06,95.19Z"/><path class="cls-1" d="M81.23,95.07l-2.7.72A2.12,2.12,0,0,1,76.2,95l0,0a27.1,27.1,0,0,1,.4-2.83c.22-.92.51-2,1.73-2,1.5,0,1.22,1.2,1.1,2.12-.2,1.47.58,1.94,1.86,2l.16.38Z"/><path class="cls-1" d="M59.46,100.33l-2,2.75c-.81.14-1.63.79-2.44,0l-.54,0c1.55-1.86.68-5.33,4-6.16Z"/><path class="cls-10" d="M201.1,109.57h3.62c-.29,1-.59,2.06-.87,3.08-.35,1.27-1.07,2.34-2.48,2-1.62-.41-.62-1.72-.53-2.67.05-.59.19-1.17.28-1.76Q201.11,109.89,201.1,109.57Z"/><path class="cls-1" d="M92.23,95.14l0-.84c.13-.33.25-.68.41-1,.73-1.43.35-4.53,2.82-3.56,2.18.86.11,3-.3,4.61A2.12,2.12,0,0,1,92.23,95.14Z"/><path class="cls-1" d="M42.09,195.94l1.61-.73a1.87,1.87,0,0,1,2.74.06c-.2.8-.4,1.6-.58,2.41-.28,1.26-.93,2.42-2.3,2.24-1.77-.23-.65-1.65-.67-2.56A1.37,1.37,0,0,0,42.09,195.94Z"/><path class="cls-1" d="M48.6,195.31l.82-.8c1-.67,1.91-.71,2.39.65-.12.71-.21,1.42-.38,2.12-.28,1.2-1.07,2-2.3,1.78-1.49-.27-.75-1.46-.68-2.33C48.5,196.26,48.55,195.79,48.6,195.31Z"/><path class="cls-11" d="M92.23,95.14l2.88-.79.67.57c-.18.3-.34.62-.55.91-.79,1.13-.34,3.75-2.53,3.11C91,98.42,92.48,96.43,92.23,95.14Z"/><path class="cls-1" d="M81.32,94.36a2.38,2.38,0,0,1,.15-.69c.79-1.37,0-4.44,2.54-3.77,2,.53.32,2.85.26,4.37l-.06.06a2.07,2.07,0,0,1-2.93,0Z"/><path class="cls-1" d="M59.43,195.31l.85-.86a1.38,1.38,0,0,1,2,.73l.85.73a8.38,8.38,0,0,0-.5.93c-.45,1.15-.47,2.93-2.27,2.55s-.64-2-.84-3A8.59,8.59,0,0,1,59.43,195.31Z"/><path class="cls-12" d="M29,202.52c-.13-1.22-2.13-.7-2-2.16.1-1.24.46-2.7,1.68-2.88,2.44-.36.34,2.45,1.78,3Z"/><path class="cls-5" d="M51.82,195.17l-2.4-.65c.35-1.56,0-4.19,2.17-3.86s.2,2.66.59,4A4.45,4.45,0,0,1,51.82,195.17Z"/><path class="cls-12" d="M32.62,162.59c1.22,2.12,2.93,4.31-.68,5.91-1-1,.17-2.27-.73-3.1Z"/><path class="cls-13" d="M24.58,190.91c2.72,1.51,2.66,2.55-.34,5.09-1.36-.65.1-2.29-1-3Z"/><path class="cls-8" d="M29.7,172.76c0,1.29,2.49,0,1.92,1.89-.35,1.14-.5,2.72-1.91,2.77s-.33-2-1.4-2.53Z"/><path class="cls-13" d="M39.91,136.45c3,1.84,1.53,3.5-.1,5.29-1.36-.8-.23-2.44-1.35-3.16Z"/><path class="cls-9" d="M40.7,197.43c-.62-.78-2.18-.77-2-2.22.15-1,.24-2.36,1.59-2.42s.87,1.15.92,1.91a1.6,1.6,0,0,0,.88,1.42Z"/><path class="cls-14" d="M46.44,195.27l-2.74-.06a7.76,7.76,0,0,1,.29-1.36c.45-1.11.51-3,2.25-2.43,1.49.52.08,2,.21,3.1Z"/><path class="cls-15" d="M50.71,103.8c2.41,2,1.86,3.69-.29,5.59-1-1.39-.24-2.44-.34-3.45Z"/><path class="cls-5" d="M34.83,154.6c-.06,1.29,2.39.1,1.84,1.86-.31,1-.35,2.39-1.55,2.54-1.43.17-.77-1.77-1.73-2.27Z"/><path class="cls-16" d="M37.64,145.17a9.47,9.47,0,0,1,1.2,2.18c.31,1.26-.11,2.76-1.35,3-1.8.29-.52-1.67-1.2-2.36Z"/><path class="cls-17" d="M44.94,118.3a13.23,13.23,0,0,1,1,1.84c.53,1.4.15,3-1.19,3.24-1.64.33-.26-1.81-1.23-2.35Z"/><path class="cls-16" d="M46.49,109.54a7.86,7.86,0,0,0,1.27,1.7c1.19.93.75,1.9.2,2.85-.21.36-.82.84-1.08.75-1.11-.37-.35-1.77-1.15-2.39Z"/><path class="cls-7" d="M230.12,229.41c2.23-1,4.21-1.65,2.85,2.13-.89,2.47.23,2.74,2.24,2.07q.31.23.21.47t-.2.24a90,90,0,0,1-37.43,11.11c-.71.1-1.67.79-1.71-.72,1.88-1.84,1.82-4.31,2.14-6.65l-.06,0,3-.25c2.18,1.81,3.2.28,4.15-1.45a1.78,1.78,0,0,1,.84-.5c1.16.65,2.38.08,3.57.16,1,.46,2,2.15,2.86-.22.37-1,1.6-.89,2.42-1.33a2.37,2.37,0,0,0,.62-.1,1.91,1.91,0,0,1,2.59.18c1.28,1.7,1.53.09,2.13-.51a3.69,3.69,0,0,1,2.48-1.68c2-.9,2.65-.38,2.17,1.81-.22,1-1.48,2.59.34,3a3,3,0,0,0,3.24-2.33c.57-1.84,1.06-3.7,1.58-5.56Z"/><path class="cls-7" d="M172.75,237.3l.76.07c1,.47,1.58,2.6,3.08.54.46-.64,1.32-.27,2,.05,2.94,2.1.13,4.34.15,6.51-1.47,2.48-3.64.86-5.52.95a64.21,64.21,0,0,1-14.21-3.1q-.24-.2-.16-.41t.16-.2c2.18.19,3.35-.86,3.67-3,.3-1.95,1.36-3,3.44-2.75,1.15,1,1.94,3.06,4,1C170.45,236.57,171.89,236.81,172.75,237.3Z"/><path class="cls-4" d="M173.2,245.43c1.86-.18,3.83.23,5.52-.95,2.59.67,4.06-.34,4.59-2.94.26-1.26.51-2.58,1.7-3.39a3.76,3.76,0,0,0,1.33.32c2.72.64,3.44.62,5.33-.34,2.68-.13,3,1.28,2.24,3.41s-.23,3.27,2.18,3.18l1.71.72A81.24,81.24,0,0,1,173.2,245.43Z"/><path class="cls-18" d="M145.15,229.94c1.88.94,1.44,2.5,1.12,4.07-.27,1.29-.7,2.78,1.08,3.32,2,.62,1.93-1.14,2.33-2.33s.37-2.71,2.1-2.33,1.23,1.8,1,3c-.39,1.72-.59,3.36,1.22,4.46q.8.45-.05.78a77,77,0,0,1-13.79-5.1,1.22,1.22,0,0,1-.15-1,12.62,12.62,0,0,0,1.94-3.3C142.48,230,143.45,229.15,145.15,229.94Z"/><path class="cls-19" d="M247.54,202.54a9.71,9.71,0,0,0,5-4.31A30.17,30.17,0,0,1,249,212.84l.51-5.22c-3.23,1.49-3.63.22-2.67-2.38a25.33,25.33,0,0,0,.69-2.75Z"/><path class="cls-20" d="M275.12,80.35c2.47-1.07,4-3.22,5.93-5-.85,5-1.43,10-3.68,14.67a.51.51,0,0,1-.07-.9,4.27,4.27,0,0,1,.07-1.08c.84-2.57.47-4-2.84-2.35Z"/><path class="cls-11" d="M277.3,89.15l.07.9c.07,5.09-1.51,9.86-2.78,14.7-.58,0-.63-.5-.74-.91.26-1.28.54-2.57.77-3.86.09-.55.32-1.52-.49-1.43-5.62.62-.64-3.09-1.78-4.26a1.46,1.46,0,0,1,1.31-1.23A9.9,9.9,0,0,0,277.3,89.15Z"/><path class="cls-19" d="M235.22,234.33q0-.36,0-.71a9.86,9.86,0,0,0,2.19-4.79,6,6,0,0,1,1.41-3.21c.68-.62,1.52-1.51,2.46-1s.27,1.49.21,2.29c-.08,1-1.27,2.47,1,2.5.74-.3.88,0,.7.68A26.75,26.75,0,0,1,235.22,234.33Z"/><path class="cls-14" d="M260,169.18c-1-.51.73-4.05-2.52-2.14-.88.52-.91-.72-.85-1.4.12-1.3.28-2.59.42-3.88-.62-1-.9-1.81.67-2.06,2.66,1.73,3-1.19,4.34-2.16C262.55,161.63,261.12,165.38,260,169.18Z"/><path class="cls-20" d="M253.45,195.31a2.3,2.3,0,0,1-.31-.63c-.35-2.44-3.06,1.71-3.2-1.14-.07-1.36,1.05-2.76-.19-4.07-.43-1.29-.27-2.2,1.38-2.16,2.36,2.09,3-1.22,4.58-1.48C255.51,189.12,255.46,192.45,253.45,195.31Z"/><path class="cls-19" d="M256.3,183.06a9.16,9.16,0,0,0-.37-2c-5.57-.16-1-3.7-1.83-5.39h0c2.11-1.3,4.15-2.68,5.18-5.09C258.93,174.89,258.5,179.19,256.3,183.06Z"/><path class="cls-20" d="M273.83,103.84l.74.91c-.52,2.9-.59,5.92-2.25,8.52a7.34,7.34,0,0,0-.48-1.23c-5.78,1.2-1.61-3.11-2.54-4.56l.12-.13C270.95,106.24,272.65,105.37,273.83,103.84Z"/><path class="cls-4" d="M269.38,125.68c-1.24-1.18-2.11.92-3.31.41-.69-1.51.24-2.82.46-4.2.28-.42.05-1.08.64-1.36,1.65-1.22,3.32-2.43,4.27-4.35C271.64,119.54,271.31,122.79,269.38,125.68Z"/><path class="cls-18" d="M262.84,154c-.69-2.41-2.17.41-3.32-.7l1.13-5.28,0,0,4.49-2.91C265.44,148.4,264.13,151.2,262.84,154Z"/><path class="cls-19" d="M245.52,221.21c-1.61.66-2.89.88-2.29-1.62.25-1,.43-2.11.64-3.17l.2-.22,4.89-2.75-1.5,8.64C246.46,222.57,246.42,220.94,245.52,221.21Z"/><path class="cls-10" d="M266.31,139.29c-4.11.82-4.18.72-2.76-3.58.38-.38.12-1.1.71-1.36,1.13-.83,2.1-1.92,3.56-2.23C268.17,134.7,268.05,137.16,266.31,139.29Z"/><path class="cls-18" d="M153.91,240.9l.05-.78c2.69-1.35,1.93-4.25,2.86-6.39l0,0c2.41.63,3.33,2,2.37,4.46a5.09,5.09,0,0,0-.16,3.5q0,.31,0,.61Z"/><path class="cls-20" d="M140.1,235.24q0,.28,0,.56l-4.25-1.39-.82-.78c-.09-.61,0-1,.75-.65a10.59,10.59,0,0,0,1.09-2.59c.36-2.64,1.74-3.1,4-2.16a1.84,1.84,0,0,1,.73.71C142.19,231.3,141.36,233.32,140.1,235.24Z"/><path class="cls-5" d="M245.52,221.21c.94-.35,1.39.37,1.94.88-.84,3-.22,6.72-4.26,8l-.7-.68C245.26,227.31,246.48,224.67,245.52,221.21Z"/><path class="cls-21" d="M165.52,183.8c1.3-.82,1.29-2.26,1.61-3.51q4.29-16.5,8.53-33c1.48-5.71,4.64-7.93,10.56-7.68,3.86.16,7.74,0,11.6.18,2.9.12,4.24-1,4.88-3.93,1.27-5.8,3.91-8.06,8.57-8.15,3.51-.07,4.59,1.25,3.81,4.65a23.65,23.65,0,0,1-.64,2.46c-.79,2.27.09,2.88,2.24,2.35q5.28-1.29,10.57-2.55c9.58-2.29,14.56,2.33,12.28,11.88-3,12.46-6.28,24.86-9.64,37.22-1.72,6.31-6.72,9.22-12.61,10.77a49.45,49.45,0,0,1-15.13,1.31c-2.77-.14-4.15.74-4.75,3.57-.92,4.37-2.27,8.65-3.44,13a6.09,6.09,0,0,1-5.69,4.8c-3.9.4-6.1-1.84-5.29-5.67.92-4.37,2-8.73,3.37-13,.9-2.83-.07-3.67-2.72-3.84-2-.13-4.07-.58-6.1-.89-5-.77-9.66-2.19-12-7.35A1.59,1.59,0,0,1,165.52,183.8Z"/><path class="cls-21" d="M109.5,121.2c1.31-2.32,3.27-3,5.83-2.43,5.18,1.14,10.41,2.06,15.56,3.35,5.7,1.43,6.91,5.6,3,9.91A55,55,0,0,1,123,141.5c-2.37,1.54-2.16,2.7-.24,4.31s3.72,3.43,5.67,5,3.09,3.33,1.57,5.58-3.91,2.11-6.15,1-3.75-3.37-5.68-5c-3.41-2.4-6.76-5-11.31-2.7-.87.43-1.82.69-2.34,1.57-.61,1-1.57,2.39-.72,3.29,1.11,1.17,2.08-.39,3-1a20.87,20.87,0,0,0,2.16-1.91c3.52-3,6-2.61,8.6,1.42,1.85,4.69-2.57,6.16-4.93,9.25l7.29,3c3.77,1.55,5.27,3.71,4,6.07-1.69,3.08-4.24,2-6.64,1-5-2-10-4.09-15.7-6.43,1.37,3.89,3.61,6.22,5.64,8.6,2.89,3.4,6.05,6.58,9.11,9.84,1.87,2,3.9,4,1.58,6.87-1.52,1.86-4.65,1.14-7.26-1.6a114.27,114.27,0,0,1-13-16.5c-.39-.59-.87-1.12-1.47-1.88-1.71,2.52-2.12,5.28-3.06,7.82-.84,2.28-2.05,3.94-4.79,3.19s-3.25-2.86-2.61-5.42,2.18-5.07,2-8.31c-4.5,1.79-8.72,3.49-13,5.13a20.83,20.83,0,0,1-7.69,1.91c-1.27,0-2.46-.18-3-1.55a2.79,2.79,0,0,1,1.3-3.45A16.58,16.58,0,0,1,69,169c5.66-2,11.43-3.81,17.38-7-4.08-1.79-7.92-1.61-11.6-2.17-1.72-.26-4.15.24-4-2.41s2-3.72,4.54-3.7c1.21,0,2.42.12,3.62,0,.89-.06,2.54.69,2.14-1.3-.26-1.3-.76-2.67-2.69-2-1.59.57-3.2,1.1-4.84,1.54-1.36.37-3,1.08-3.79-.77s.35-3.33,2-4.1c2.52-1.17,5.19-2,7.67-3.24,1.09-.54,3.73-.37,2.27-2.95-1-1.78-2.19-2.56-4.34-1.12-1.29.86-3.12,3.09-4.81.2-1.65-1.5-1.1-2.92.27-4.16,1-.94,2.15-1.8,3.22-2.69,2-2.06,4.75-2.94,7.29-4.11,5.49-1.76,7.34-6.28,8.58-11.28.54-2.16,1.74-3.71,4.13-3.95,2.12-.21,2.86,1,3.35,2.9.36,1.44,2.08.6,3.17.88,2.38.61,5.66-.4,6.19,3.49-.51,4.21-1.67,4.92-6.82,4.19,4.1,2,5,6.87,1.88,10.8a17.39,17.39,0,0,1-5.35,4.19c-2.48,1.41-4.48,3.46-6.66,5.27-1.93,1.6-1.81,3.43-.24,5.59a7.35,7.35,0,0,0,2.29-4.56c.32-4.51,3.42-6,7.05-7,1-.3,2.12-.48,3.19-.67a2.07,2.07,0,0,0,1.81-2.91,12.39,12.39,0,0,1-.38-4.53c.21-2.05,0-4,2.63-4.58,3-.67,5.41.21,6.81,2.66a15.35,15.35,0,0,0,1.51,2.87,2.1,2.1,0,0,0,2.93.4c.92-.57,2-1.21,1.84-2.47s-1.24-1.39-2.18-1.56a61.65,61.65,0,0,1-7-1.86C108.46,125.84,108,124.84,109.5,121.2Z"/><path class="cls-21" d="M165.52,183.8v2.58c-2.65,3-6.25,3.89-10,4.53a62.82,62.82,0,0,1-11.9,1c-3.36-.07-5.18-2-5.14-5.18,0-3.44,2.35-4,5-3.66,3.56.44,5.07-1,5.81-4.47,1.58-7.44,3.56-14.8,5.51-22.15.51-1.94.17-3-1.82-3.43a9,9,0,0,1-2.35-.94c-2.06-1.15-2.87-2.87-2.08-5.17s2.79-3.21,4.91-2.26c3.61,1.62,4.57,0,5.15-3.2.66-3.68,1.73-7.28,2.68-10.91.72-2.73,2.41-4.29,5.33-3.44,2.72.79,3.32,2.82,2.63,5.45-1.11,4.2-2,8.46-3.22,12.64-.6,2.1-.16,3.16,2.05,3.57,2.76.51,4.49,2.09,3.74,5.08s-2.84,4.22-5.79,3.33c-2.12-.64-3-.17-3.53,2-1.46,6.23-3.15,12.41-4.73,18.61-.45,1.76-1.1,3.56,2.1,2.48S163.86,182.25,165.52,183.8Z"/><path class="cls-21" d="M77.69,135c-2.29,1.12-4.76,2.05-5.11,5.11-3.55,6.06-8.2,11.93-3.12,19.41a11.45,11.45,0,0,1,1.43,3.32c.72,2.58-.46,4.23-2.88,5s-3.91-.25-4.31-2.85a22,22,0,0,0-1.09-3.22c-1.84,2.78-3.31,5.19-5,7.47a32.17,32.17,0,0,1-7.89,7.92c-1.29.86-3,2-4.26.64s.36-2.88,1.37-4c6.2-6.62,10.6-14.34,14.15-22.61a5.43,5.43,0,0,0,.7-3.13c-1.09-3.21,0-6.29,2.9-8.59,1.53-.77,1.52-2.39,2-3.71,1.59-4.69,3.08-9.41,4.62-14.11a6.65,6.65,0,0,1,4.55-4.77c2.11-.58,3.44.07,2.72,2.57s-1.63,5.24-2.54,8.12c2-.6,2.57-2.19,3.73-3.15,1.36-1.12,2.91-2.23,4.53-.94s.16,2.8-.51,4.13c-.27.53-.57,1.05-.86,1.58C81.41,131.39,79.05,132.74,77.69,135Z"/><path class="cls-1" d="M109.5,121.2c-.19,2.68,1.19,3.92,3.72,4.42,3.44.68,6.85,1.53,10.25,2.39,2.11.53,2.67,1.69.87,3.25-2,1.74-4.11,3.37-6.18,5-1.34,1.08-2.13.53-2.68-.9-.65-1.69-1.29-3.4-2.07-5a3.42,3.42,0,0,0-4.54-1.88c-2.26.71-2.4,2.44-2,4.39.05.24.16.46.2.7.3,2.2,2.94,4.34,1.44,6.29-1.22,1.58-4.08,1-6.22,1.32-3.66.53-6.76.94-6.44,6.23.13,2.17-1.87,4.83-2.76,7.32-.28.78-.79,1.23-1.65,1s-1.6-.39-1.6-1.59a8.1,8.1,0,0,0-.55-2.81c-1.89-5-1.91-5,2.59-8.06,3.49-2.39,7.1-4.65,10-7.74,1.62-1.7,3-3.59,2.17-6.15s-3.19-2.13-5.15-2.53c-1-.21-2.74.49-2.5-1.63.2-1.8,1.47-2,2.93-1.82a23.65,23.65,0,0,1,3.24.33,5.11,5.11,0,0,0,6.17-2.55Z"/><path class="cls-21" d="M64.6,139.46a28.72,28.72,0,0,1-2.9,8.59c-1.47.85-2,2.72-3.69,3.34-.8.29-1.67.67-2.42.16s-.61-1.51-.35-2.32q2.37-7.38,4-14.94a5.57,5.57,0,0,1,1.51-2.39c1-1,2.22-2.31,3.7-1.73,1.8.7.71,2.48.75,3.8C65.33,135.83,63.85,137.51,64.6,139.46Z"/><path class="cls-1" d="M117.61,153.14c-2.94-2.39-5.57-2.29-8.22.64-1.52,1.69-3.54,2.92-5.24,4.46a2.2,2.2,0,0,1-2.66.25c-1.26-.53-.91-1.47-.64-2.44.55-2,1.66-3.79,1.54-5.92-.06-1.09.65-1.46,1.54-1.67,2.7-.64,5.42-1.23,8.11-1.94,1.37-.36,2,.45,2.66,1.34,1.16,1.54,2.34,3.07,3.52,4.6Z"/><path class="cls-1" d="M191.67,238.14c-.59,1.82-1.16,3.65-1.79,5.46a2.07,2.07,0,0,1-2.52,1.51c-1.58-.33-1.19-1.52-.94-2.58.4-1.74,1.18-3.59-1.4-4.37l2.9-.79c1.22-.39,2.43-1.15,3.69-.1Z"/><path class="cls-19" d="M135.8,233l-.75.65a29.42,29.42,0,0,1-7.36-3.48l.76-.7c2,.42,2.12-1,2.37-2.32.44-2.38,1.66-2.65,3.5-1.36l0-.05C134.27,228.25,131.85,231.28,135.8,233Z"/><path class="cls-1" d="M215,234.53c-1.56,1.38-1.66,3.41-2.26,5.21-.51,1.51-1.4,2.85-3,2.44-2.09-.51-.65-2.14-.54-3.28a24.88,24.88,0,0,1,.58-2.81l.8-2.34c1.23.24,2.63-.4,3.69.73Z"/><path class="cls-1" d="M178.56,238c-2.23.78-2.08,3-2.74,4.67-.37,1-.74,1.78-2,1.54a1.74,1.74,0,0,1-1.52-2.34c.34-1.5.78-3,1.18-4.47h0c1.41-.56,2.35-2.39,4.27-1.6Z"/><path class="cls-1" d="M221.56,234.4a36.64,36.64,0,0,1-1.46,4.37,2.43,2.43,0,0,1-3,1.39c-1.29-.45-.38-1.6-.33-2.46.08-1.24,1.36-2.92-1.15-3.26l2.38-.8C220.44,231.66,221,231.79,221.56,234.4Z"/><path class="cls-1" d="M206.2,236.59c-.45,1.73-.87,3.48-1.36,5.2-.42,1.46-1.47,2.33-3,1.92s-.76-1.76-.59-2.73.56-2.1-.11-3.12l1.4-1.3A2.42,2.42,0,0,1,206.2,236.59Z"/><path class="cls-1" d="M172.75,237.3c-2.37-.22-3,1.36-3.49,3.23-.35,1.46-.86,3-2.8,2.35s-.8-2.18-.7-3.38.23-2.35.35-3.53l.81-.05a2.84,2.84,0,0,1,3.66-.07Z"/><path class="cls-18" d="M221.56,234.4c-.79-2-2.29-.83-3.53-.77-.22-1.88.9-3.4,1.37-5.1a2.3,2.3,0,0,1,2.69-1.83c1.58.36.7,1.73.58,2.67s-.63,2.07.19,3Z"/><path class="cls-1" d="M140.1,235.24c-1.1-2.45.17-4.67.71-7,1.26-1.08,2.43-.64,3.57.22l.77,1.44a3.27,3.27,0,0,0-1.86,2.8A2.74,2.74,0,0,1,140.1,235.24Z"/><path class="cls-22" d="M273.64,93.05l-1.31,1.23-3.48,1.49c.12-3.32.55-6.1,4.05-7.54C273.71,89.85,272.39,91.7,273.64,93.05Z"/><path class="cls-19" d="M230.17,229.35l-3.64,1.15c0-2.5.38-4.54,1.91-6.21.55-.6,1.42-1.18,2.25-.74s.33,1.29.21,2c-.24,1.3-.51,2.59-.77,3.88Z"/><path class="cls-1" d="M114,215.59c-.38,1-.77,2-1.15,2.95s-.54,1.94-1.88,1.54a1.79,1.79,0,0,1-1.43-2.13c.23-1.51.55-3,.83-4.53a5,5,0,0,1,.71-2.93c1.75.12,1.26,2.52,2.85,2.8Z"/><path class="cls-14" d="M264.26,134.35l-.71,1.36c-1.24-1-2.1,1.06-3.49.31.42-2.87.44-5.93,4.11-7.15C265.07,130.84,263.3,132.61,264.26,134.35Z"/><path class="cls-11" d="M254.11,175.65c-1.1.32-1.87,1.54-3.46,1.14.25-2.24.27-4.51,2.18-6.15.52-.45,1.2-1,1.92-.7.88.4.4,1.23.26,1.89-.28,1.29-.61,2.56-.91,3.84Z"/><path class="cls-4" d="M235.58,226.64c-1.12-.24-.86-1-.69-1.68.55-2.14.64-4.7,3.53-5.15,1-.16.86.85.74,1.55C238.78,223.68,238,225.7,235.58,226.64Z"/><path class="cls-19" d="M214.24,234.47c-1.3.13-3,2.33-3.69-.73.16-.45.35-.89.48-1.34.5-1.73,1-4.1,3.23-3.36,2.06.68.08,2.63.1,4A13.35,13.35,0,0,1,214.24,234.47Z"/><path class="cls-7" d="M206.2,236.59l-3.61,0a4.13,4.13,0,0,1,0-.72c.55-2.3,1-5.8,3.72-5.11s-.47,3.35-.17,5.18Q206.19,236.26,206.2,236.59Z"/><path class="cls-4" d="M247.59,202.48c-1,.48-2.14,2-3.08,1.21-1.18-1.05.05-2.67.37-4a3.23,3.23,0,0,1,2.77-2.47c1.1-.16.93.81.79,1.49-.27,1.28-.6,2.55-.9,3.82Z"/><path class="cls-19" d="M198.22,238.07c-1.07-.24-2.79.23-2.57-1.64.2-1.71.17-3.78,2.12-4.65,1.26-.56,2.21.06,1.88,1.56s-1,3.19-1.49,4.78Z"/><path class="cls-6" d="M267.16,120.53l-.64,1.36c-1.05-.88-2,.66-3.21.07,0-2.93.39-5.61,3.85-6.8Z"/><path class="cls-1" d="M102.36,209.76c-.35.74-.69,1.49-1.05,2.23s-.11,2.48-1.71,2.2-1.68-1.76-1.4-3.11a4.64,4.64,0,0,0-.22-3.45l1.41-2.21c1.48,0,1.65,1.81,2.92,2.1Z"/><path class="cls-19" d="M243.86,216.42,240.51,218c.53-3.42.46-6.51,4.82-7.66l-1.26,5.84Z"/><path class="cls-6" d="M162.75,229c1.3.1,2,.76,1.73,1.89-.36,1.54-.06,3.62-2.24,4-1.14.22-1.83-.69-1.57-1.82C161,231.57,160.82,229.65,162.75,229Z"/><path class="cls-20" d="M170.58,235.85a3.3,3.3,0,0,1-3.66.07c.35-1.28.66-2.57,1.06-3.83.3-.94.78-1.89,2-1.65,1.52.29,1.3,1.48,1.12,2.58S170.76,234.91,170.58,235.85Z"/><path class="cls-19" d="M269.31,107.47l-3.14,1.75c0-3.51.45-6.23,4.42-7.82l-1.16,5.95Z"/><path class="cls-18" d="M260.65,148l-3.47,1.76c.22-3.4.36-6.19,4-7.17.59,2-.55,3.67-.56,5.44Z"/><path class="cls-7" d="M151,108c1.28-1.48,2.87-.76,4.38-.62-.19.7-.36,1.41-.59,2.09-.46,1.37-.78,3.06-2.85,2.35S150.21,109.57,151,108Z"/><path class="cls-18" d="M182.54,237.92c-1.43-.09-1.69-.88-1.37-1.77.57-1.58.22-3.81,2.52-4.3a1.19,1.19,0,0,1,1.48,1.5C184.77,235.18,184.2,237,182.54,237.92Z"/><path class="cls-7" d="M177.79,235.76c-1,1.72-2.61,1.69-4.27,1.6.39-1.24.76-2.49,1.16-3.73s.56-2.5,2.24-2.16,1.09,1.76,1,2.87C177.87,234.81,177.83,235.29,177.79,235.76Z"/><path class="cls-20" d="M149.78,225.28c1.2.23,1.9.89,1.61,2-.36,1.39.06,3.42-2,3.76-1.24.21-2-.77-1.7-2.08S147.84,225.75,149.78,225.28Z"/><path class="cls-4" d="M144.38,228.5c-1.24.7-2.4.18-3.57-.22l.06-.06c.26-1.15.49-2.31.81-3.45.26-.94.68-1.86,1.93-1.6s1.4,1.12,1.25,2.17S144.54,227.45,144.38,228.5Z"/><path class="cls-19" d="M156.82,233.73c-1.14-.32-2.55-.45-2.67-2a5.09,5.09,0,0,1,1.29-4,1.23,1.23,0,0,1,1.66-.09c1.46,1.08.42,2.41.27,3.63a22.22,22.22,0,0,1-.58,2.45Z"/><path class="cls-1" d="M91.43,204.56c-1.15.5-1.3,1.59-1.59,2.63-.24.83-.61,1.64-1.7,1.4a1.73,1.73,0,0,1-1.39-2.14c.13-1.3.23-2.6.34-3.9l.65-.77c1.36-.26,2.06.83,3,1.45Z"/><path class="cls-20" d="M251.13,187.31l-1.38,2.16c-.51.51-1.1,1.19-1.83.88-.88-.37-.38-1.25-.28-1.91a13.22,13.22,0,0,1,.47-1.74c.46-1.6,1.43-3.41,3.07-2.85S251.19,186.1,251.13,187.31Z"/><path class="cls-2" d="M191.61,237.26c-1.21.87-2.43,1.13-3.69.1.37-1.12.71-2.24,1.11-3.35s1-2,2.29-1.76c1.61.34.9,1.61.76,2.59C192,235.65,191.77,236.46,191.61,237.26Z"/><path class="cls-1" d="M108.16,212.6c-.39.71-.83,1.4-1.17,2.14-.42.91-.41,2.35-2,1.9-1.27-.37-1.26-1.58-1.11-2.67s.4-2.32.61-3.48h0c1.17-.37,2.33-1,3.56-.16Z"/><path class="cls-10" d="M143.82,105.39c1.73-.26,3.35-.33,3.61,2-.76,1.07-.76,3.27-2.8,2.59C141.85,109.08,144,107,143.82,105.39Z"/><path class="cls-20" d="M134.31,225.77c.42-1.37.82-2.74,1.26-4.11a1.25,1.25,0,0,1,1.61-1,1.67,1.67,0,0,1,1.3,1.51c.45,2.71-1.2,4.12-4.21,3.55Z"/><path class="cls-19" d="M194.55,110.29h2.95a3.66,3.66,0,0,1-.09.72c-.6,1.81-.3,5.22-2.9,4.46S194.39,112.09,194.55,110.29Z"/><path class="cls-10" d="M257.7,159.7l-.67,2.06c-.82.36-1.63,1.43-2.52.65s-.22-1.79,0-2.69A4.36,4.36,0,0,1,258,156.2C258.72,157.52,257.83,158.57,257.7,159.7Z"/><path class="cls-18" d="M169.3,111.5c-.43,1.24-.46,3-2.58,3.07-1,0-1.59-.6-1.33-1.61.37-1.44.49-3.2,2.6-3.24C169,109.7,169.51,110.27,169.3,111.5Z"/><path class="cls-5" d="M130.49,223.29c-1.23-.14-1.94-.77-1.69-1.89.3-1.29-.11-3.1,1.63-3.59a1.43,1.43,0,0,1,1.82,1.62C132.12,220.89,132.17,222.55,130.49,223.29Z"/><path class="cls-4" d="M214.87,106.71c1,0,2.65-1.19,2.76.87.09,1.74-.15,3.7-2.34,4.34-1.25.36-1.43-.47-1.24-1.44.26-1.28.58-2.55.87-3.82Z"/><path class="cls-1" d="M85,201.89c-.72,1.47.11,4.44-2.21,4.22-3-.29-1-3.06-1.28-4.72-.06-.35-.13-.71-.2-1.06H82c1.61-.88,2.24.29,2.91,1.38Z"/><path class="cls-4" d="M159,108.13l3.62.73c-.89,1.6-.2,5-2.92,4.44C156.67,112.66,159.36,109.9,159,108.13Z"/><path class="cls-19" d="M221.4,104.53c1,.11,2.58-1.49,3,.29a4.19,4.19,0,0,1-1.77,4.7c-1.08.65-1.87.21-1.72-1.18s.35-2.58.53-3.87Z"/><path class="cls-10" d="M139.85,105.37c-.43,1-.2,2.73-2,2.86-1,.07-2-.42-1.8-1.67s.26-3.08,2.21-3.18C139.35,103.33,140,104.06,139.85,105.37Z"/><path class="cls-6" d="M208.34,108.11l2.91,0c-.54,2.07-.1,5.73-2.91,5.19C205.88,112.85,208.62,109.95,208.34,108.11Z"/><path class="cls-19" d="M126,101.73c-.41,1-.12,2.73-2,2.86-1.12.07-1.87-.56-1.6-1.8s.15-2.86,1.93-3C125.51,99.67,126.17,100.4,126,101.73Z"/><path class="cls-4" d="M129.94,100.86c1.36.61,3,.91,3,2.92-.59,1.18-.65,3.19-2.71,2.47s-.76-2.36-.58-3.64C129.74,102,129.84,101.44,129.94,100.86Z"/><path class="cls-18" d="M172.81,111.82c1.24-1.41,2.49-2.23,3.79-.05-.12.33-.23.67-.36,1-.51,1.31-.88,3.07-2.79,2.44S173,113,172.81,111.82Z"/><path class="cls-7" d="M180,111l3.62.1c-.1.22-.18.44-.3.65-.81,1.47.08,4.72-2.81,3.94C178.15,115.06,180.46,112.6,180,111Z"/><path class="cls-20" d="M187.29,111l2.89,0a9.64,9.64,0,0,1-.11,1.77c-.36,1.46-.5,3.54-2.61,3.07-2.26-.51-.59-2.28-.52-3.5A7,7,0,0,1,187.29,111Z"/><path class="cls-5" d="M126,217.36c-.46,1,0,2.79-1.79,2.91-1.14.07-1.6-1-1.41-2,.22-1.2.06-2.87,1.8-3C125.78,215.15,126.14,216.17,126,217.36Z"/><path class="cls-19" d="M119.94,214.87c-.42.89.07,2.67-1.77,2.39-1.3-.2-1.41-1.47-1.21-2.57s.26-2.36,1.69-2.29S120.11,213.67,119.94,214.87Z"/><path class="cls-18" d="M118,98.22a1.54,1.54,0,0,1,1.3,2.15c-.28,1.11-.3,2.57-2,2.48-1.3-.07-1.45-1.06-1.24-2.1S116.45,98.3,118,98.22Z"/><path class="cls-20" d="M109.66,98.77c1.17-1.9,2.35-3.45,3.63-.08-.68,1-.53,2.86-2.37,2.64C109.43,101.17,109.75,99.8,109.66,98.77Z"/><path class="cls-20" d="M84.88,201.73,82,200.34c.87-1.21.1-4.24,2.32-3.61C86.88,197.48,84.7,200,84.88,201.73Z"/><path class="cls-8" d="M90.73,203.23a2.06,2.06,0,0,1-3-1.45c.14-.46.26-.93.43-1.37.33-.86.48-2.06,1.84-1.69s1.11,1.36.95,2.36C90.84,201.79,90.8,202.51,90.73,203.23Z"/><path class="cls-7" d="M108.08,210.35c-1.11,1.76-2.34.8-3.56.16a6.14,6.14,0,0,1,.3-.64c.66-1.1.1-3.41,2.08-3.12S107.9,209,108.08,210.35Z"/><path class="cls-20" d="M113.91,213.3c-2.55,1.44-2.72,1.27-2.85-2.8.51-.69,1-1.51,2-.86C114.5,210.56,113.83,212,113.91,213.3Z"/><path class="cls-11" d="M103.84,96.59a4.23,4.23,0,0,1,2.92-.82q0,1.46,0,2.93c-.43,1-.9,2.34-2.23,1.76C102.69,99.65,104.1,97.9,103.84,96.59Z"/><path class="cls-12" d="M81.28,94.31l2.93,0a8.36,8.36,0,0,1-.35,1.36c-.55,1.25-.18,3.73-2.32,3.12-1.76-.5-.2-2.45-.31-3.74Z"/><path class="cls-5" d="M98.06,95.19l2.87-.15.13.75c-.62,1.36-.07,4.08-2.28,3.64S98.35,96.65,98.06,95.19Z"/><path class="cls-4" d="M96.61,203.38c-.27.88-.1,2.31-1.59,2.28-1.26,0-1.39-1.16-1.26-2.15s.28-2.32,1.8-2.15C96.63,201.47,96.73,202.37,96.61,203.38Z"/><path class="cls-19" d="M102.31,207.51c-3.19,2.38-2.67-.4-2.91-2.1.38-.85.64-2,1.94-1.4C102.87,204.76,102.2,206.28,102.31,207.51Z"/><path class="cls-19" d="M73,197.1c-1-.08-1.54-.53-1.45-1.39.12-1-.08-2.39,1.21-2.78,1-.31,1.58.46,1.51,1.47S74.12,196.59,73,197.1Z"/><path class="cls-5" d="M65.34,196a8.7,8.7,0,0,1,.46-1.73c.49-1,.3-2.59,2-2.59a1.09,1.09,0,0,1,1,1.26c-.07,1.38-.36,2.66-2.06,2.91-.47.07-1,.08-1.43.11Z"/><path class="cls-5" d="M78.3,194.57a1.26,1.26,0,0,1,1.44,1.35c0,1.09,0,2.31-1.36,2.63-.88.2-1.32-.51-1.33-1.31C77,196.15,77.06,195,78.3,194.57Z"/><path class="cls-7" d="M62.27,195.18l-2-.73c.05-1.47.21-2.91,1.78-3.6a1,1,0,0,1,.93.31C63.71,192.65,63,193.92,62.27,195.18Z"/><path class="cls-12" d="M65.3,98c.88,0,2.25-1.26,2.39.7a2.94,2.94,0,0,1-1.34,3.07c-.85.42-1.33-.11-1.27-1s.18-1.87.27-2.81Z"/><path class="cls-23" d="M87.09,94.36c1,.05,2,.14,2,1.43a5.26,5.26,0,0,1-.8,2.24,1.25,1.25,0,0,1-1.22.19c-.81-.55-.61-1.44-.43-2.24a15.52,15.52,0,0,1,.55-1.66Z"/><path class="cls-11" d="M56.62,190.55c1-.06,1.32.49,1.26,1.31s-.24,2-1.36,2.25c-.93.21-1.23-.52-1.22-1.31C55.31,191.82,55.51,190.9,56.62,190.55Z"/><path class="cls-4" d="M76.2,95l2.33.75a11.15,11.15,0,0,1-.33,1.37c-.36,1-.5,2.41-1.85,2.14s-.61-1.74-.8-2.68Z"/><path class="cls-14" d="M34.81,198.18c-.66.15-1.67.69-1.78-.3a3.05,3.05,0,0,1,2.34-3.56c.85,1.52-.11,2.62-.5,3.81Z"/><path class="cls-5" d="M70.38,96.49l2.11.05a10,10,0,0,1,.1,1.4c-.07,1.06-.13,2.49-1.44,2.43-1.79-.07-.63-1.6-.77-2.48A8.56,8.56,0,0,1,70.38,96.49Z"/><path class="cls-22" d="M55,103c.81-.27,1.64-1.5,2.43,0-.46,1.14-.5,2.56-2.14,3.09C54.12,105.26,55.24,104.06,55,103Z"/><path class="cls-20" d="M60.22,100.18c.65-.16,1.56-.73,1.87.13.51,1.46,0,2.73-1.71,3.52-.8-1.27,0-2.52-.12-3.7Z"/><path class="cls-6" d="M28.74,182.82c.27,1.94-.15,3.18-2.23,3.9C26.36,184.82,26.76,183.57,28.74,182.82Z"/><path class="cls-4" d="M42.07,129.22c.61-.22,1.5-1.18,1.79-.3a2.91,2.91,0,0,1-1.52,3.29c-1.29-1.08-.21-2.09-.22-3Z"/><path class="cls-1" d="M77.69,135c.52-3,3.17-4.07,5.12-5.79a1.79,1.79,0,0,1,.56-.06A18.83,18.83,0,0,1,77.69,135Z"/><path class="cls-1" d="M206.74,186.07c-5.74.11-5.74.11-4.3-5.49,2.23-8.66,2.22-8.74,11.16-9.62,2.63-.26,6.09-2.17,7.63-.24,1,1.25-.91,4.89-1.61,7.43C217.81,184.68,215.79,185.9,206.74,186.07Z"/><path class="cls-1" d="M225.26,145.36c1.92,0,2.9.82,2.24,3-.29.92-.49,1.87-.73,2.81-2.27,8.85-2.27,8.85-11.5,10-7.92.95-7.6,1-6.08-6.84.95-4.9,3-7.43,8.14-7.52C220,146.65,222.56,145.84,225.26,145.36Z"/><path class="cls-1" d="M186.46,185.68c-12-1.19-10.68-1.06-8.22-11.24.67-2.78,1.7-4,4.59-3.21.57.16,1.21.09,1.79.23,2.64.63,7.24-.6,7.65,1.37.82,4-1.28,8.16-2.62,12.12C189.16,186.37,187.5,185.53,186.46,185.68Z"/><path class="cls-1" d="M192.49,148.93c6.69,0,6.69,0,5.05,6.41-2,7.71-2,7.71-10,7.17-6.06-.41-6.06-.41-4.6-6.08C184.88,148.92,184.88,148.92,192.49,148.93Z"/><path class="cls-1" d="M95.65,133.19c-1.49,2.23-3.5,3.13-5.21,4.38-1.11.81-2.3,1.51-3.47.13-.73-.85-2.31-1.43-1.7-2.83a3.81,3.81,0,0,1,3.31-2.43A18.88,18.88,0,0,1,95.65,133.19Z"/></svg>